Coordinates
version=1
nRows=34
nColumns=38
inDegrees=no

Units are S.I. units (second, meters, Newtons, ...)
If the header above contains a line with 'inDegrees', this indicates whether rotational values are in degrees (yes) or radians (no).

endheader
time	pelvis_tilt	pelvis_list	pelvis_rotation	pelvis_tx	pelvis_ty	pelvis_tz	hip_flexion_r	hip_adduction_r	hip_rotation_r	knee_angle_r	ankle_angle_r	subtalar_angle_r	mtp_angle_r	hip_flexion_l	hip_adduction_l	hip_rotation_l	knee_angle_l	ankle_angle_l	subtalar_angle_l	mtp_angle_l	lumbar_extension	lumbar_bending	lumbar_rotation	arm_flex_r	arm_add_r	arm_rot_r	elbow_flex_r	pro_sup_r	wrist_flex_r	wrist_dev_r	arm_flex_l	arm_add_l	arm_rot_l	elbow_flex_l	pro_sup_l	wrist_flex_l	wrist_dev_l
1.03	-0.228916	1.33673	-1.3567	0.79987	0.67557	0.967406	-0.311799	0.0939268	-0.158856	0.0294103	-0.288581	0	0	0.1619	-0.178684	-0.165189	1.17938	-0.0978494	0	0	-0.374592	0.0624921	-0.110667	0.183974	-0.457547	1.28164	0.617329	0.30046	0	0	-0.270531	-0.343412	0.051378	0.927619	1.56402	0	0
1.04	-0.221317	1.33371	-1.36891	0.798338	0.666566	0.967356	-0.329348	0.0933999	-0.156576	0.0232764	-0.28572	0	0	0.166766	-0.173005	-0.177829	1.13401	-0.0983794	0	0	-0.378901	0.0586385	-0.105886	0.184567	-0.45823	1.27992	0.620255	0.301272	0	0	-0.272748	-0.341518	0.0475493	0.929282	1.55917	0	0
1.05	-0.215143	1.33016	-1.37792	0.797018	0.657642	0.967138	-0.346964	0.0935394	-0.155252	0.0180105	-0.282547	0	0	0.17005	-0.16759	-0.189925	1.0849	-0.101592	0	0	-0.383923	0.0554143	-0.102366	0.185537	-0.458764	1.27864	0.622825	0.302504	0	0	-0.275848	-0.341273	0.0452022	0.930938	1.55976	0	0
1.06	-0.213499	1.32672	-1.38252	0.795754	0.648764	0.966743	-0.363507	0.0945254	-0.153125	0.014241	-0.278697	0	0	0.172047	-0.163621	-0.20436	1.03225	-0.107807	0	0	-0.388847	0.0532409	-0.0984399	0.186529	-0.459674	1.27662	0.625588	0.303217	0	0	-0.278666	-0.340471	0.0421397	0.93265	1.56114	0	0
1.07	-0.215777	1.32453	-1.38312	0.794477	0.639725	0.966109	-0.379278	0.0962825	-0.150988	0.00889334	-0.274335	0	0	0.173632	-0.160774	-0.222225	0.976115	-0.117484	0	0	-0.39204	0.0518538	-0.09427	0.186533	-0.460507	1.27312	0.628033	0.303319	0	0	-0.280792	-0.338417	0.0379521	0.933775	1.56106	0	0
1.08	-0.220873	1.32412	-1.37952	0.793356	0.63058	0.965196	-0.392921	0.0986788	-0.149578	0.00406525	-0.27014	0	0	0.17591	-0.157474	-0.240111	0.917708	-0.126995	0	0	-0.392942	0.0514203	-0.0914828	0.186356	-0.460703	1.27002	0.629209	0.303399	0	0	-0.281635	-0.33568	0.033755	0.933591	1.55505	0	0
1.09	-0.2264	1.32247	-1.37506	0.792357	0.6216	0.964192	-0.407275	0.1013	-0.147163	0.00033531	-0.264643	0	0	0.175309	-0.153979	-0.258482	0.857573	-0.137659	0	0	-0.395642	0.0510364	-0.0887465	0.187079	-0.460827	1.26794	0.630101	0.304317	0	0	-0.283701	-0.33559	0.0327941	0.933731	1.55793	0	0
1.1	-0.233498	1.32212	-1.36789	0.791501	0.612552	0.962975	-0.419496	0.104224	-0.146554	0	-0.258836	0	0	0.175028	-0.149677	-0.27557	0.796692	-0.145892	0	0	-0.396805	0.0513316	-0.0872188	0.187901	-0.460377	1.26664	0.629829	0.305054	0	0	-0.284583	-0.334786	0.0310047	0.933412	1.55463	0	0
1.11	-0.240805	1.32219	-1.35916	0.7908	0.603475	0.961606	-0.431213	0.107495	-0.147527	0	-0.2518	0	0	0.174292	-0.143813	-0.291678	0.733269	-0.15471	0	0	-0.397542	0.0519611	-0.0872403	0.188836	-0.459225	1.26531	0.628587	0.305328	0	0	-0.284931	-0.334617	0.030364	0.932915	1.54757	0	0
1.12	-0.249021	1.32315	-1.34946	0.790078	0.594323	0.960077	-0.441507	0.110627	-0.14774	0	-0.244831	0	0	0.173061	-0.13733	-0.306557	0.667976	-0.162766	0	0	-0.397265	0.0521244	-0.0869914	0.189323	-0.457081	1.26398	0.625996	0.30532	0	0	-0.286044	-0.335938	0.0320454	0.930985	1.54962	0	0
1.13	-0.259804	1.32585	-1.33671	0.789391	0.585048	0.958347	-0.449678	0.114151	-0.147969	0	-0.238171	0	0	0.17225	-0.130124	-0.317343	0.600629	-0.170072	0	0	-0.394844	0.0525845	-0.0871667	0.189408	-0.454324	1.26278	0.622524	0.305233	0	0	-0.28672	-0.336048	0.0321591	0.928238	1.55434	0	0
1.14	-0.273001	1.32979	-1.32077	0.788817	0.57569	0.95644	-0.45624	0.118095	-0.148871	0	-0.231612	0	0	0.171275	-0.122078	-0.323445	0.531436	-0.178366	0	0	-0.390781	0.0535002	-0.0883491	0.189309	-0.451386	1.26144	0.6188	0.304758	0	0	-0.287071	-0.335666	0.0313172	0.925448	1.5555	0	0
1.15	-0.287369	1.33329	-1.30271	0.788515	0.566417	0.954478	-0.462617	0.122244	-0.150617	0	-0.225489	0	0	0.168762	-0.112844	-0.325415	0.462146	-0.186835	0	0	-0.387357	0.055336	-0.090788	0.189828	-0.449636	1.25983	0.616736	0.303803	0	0	-0.287003	-0.335504	0.0311434	0.923213	1.55246	0	0
1.16	-0.301739	1.33665	-1.28412	0.788383	0.557001	0.952476	-0.468836	0.126154	-0.153831	0	-0.219717	0	0	0.165139	-0.102764	-0.325973	0.395922	-0.193017	0	0	-0.383845	0.057265	-0.0935967	0.189909	-0.448421	1.25738	0.615292	0.302544	0	0	-0.28739	-0.336015	0.0326515	0.919948	1.55632	0	0
1.17	-0.315373	1.33976	-1.26697	0.788322	0.547414	0.950524	-0.474955	0.129119	-0.156902	0	-0.214386	0	0	0.160151	-0.0924072	-0.325981	0.334426	-0.195055	0	0	-0.380582	0.0588507	-0.0954164	0.189627	-0.447408	1.25514	0.613904	0.301544	0	0	-0.287439	-0.336097	0.0339234	0.915847	1.56302	0	0
1.18	-0.327561	1.34228	-1.25208	0.788288	0.537699	0.948692	-0.480329	0.130971	-0.161177	0.00528979	-0.208617	0	0	0.153634	-0.0821652	-0.324863	0.277595	-0.194667	0	0	-0.378045	0.0600011	-0.0963453	0.189285	-0.446278	1.25286	0.612256	0.299824	0	0	-0.286888	-0.335827	0.034916	0.911304	1.56898	0	0
1.19	-0.337954	1.34417	-1.2388	0.788251	0.527937	0.947005	-0.485408	0.132402	-0.166611	0.0134951	-0.20263	0	0	0.145899	-0.0722255	-0.319112	0.225086	-0.195996	0	0	-0.376448	0.0608241	-0.0975702	0.189308	-0.444867	1.25157	0.610189	0.298208	0	0	-0.285823	-0.335625	0.0353119	0.907181	1.57062	0	0
1.2	-0.347428	1.34591	-1.22733	0.787989	0.518029	0.945458	-0.489838	0.133372	-0.171524	0.0236429	-0.197065	0	0	0.138442	-0.0643615	-0.312196	0.181747	-0.200866	0	0	-0.374977	0.0607675	-0.098188	0.189433	-0.442497	1.25152	0.606817	0.296926	0	0	-0.284928	-0.335746	0.0348688	0.903369	1.56707	0	0
1.21	-0.354929	1.34688	-1.21911	0.787488	0.507999	0.944086	-0.494161	0.133562	-0.174777	0.0353723	-0.193086	0	0	0.132759	-0.0595847	-0.308844	0.155567	-0.206135	0	0	-0.374377	0.0594844	-0.0976174	0.189486	-0.43957	1.25184	0.603009	0.295478	0	0	-0.284747	-0.337606	0.0360027	0.899626	1.56708	0	0
1.22	-0.359846	1.34707	-1.21462	0.78688	0.497828	0.942894	-0.49859	0.132793	-0.177544	0.0490452	-0.1898	0	0	0.129896	-0.0572226	-0.310671	0.15026	-0.210031	0	0	-0.374628	0.057281	-0.096217	0.189447	-0.436944	1.25226	0.599871	0.293917	0	0	-0.285107	-0.339921	0.0370039	0.896266	1.56829	0	0
1.23	-0.362956	1.34698	-1.21279	0.786272	0.487454	0.941875	-0.501812	0.130883	-0.181906	0.0668979	-0.185243	0	0	0.130222	-0.0567538	-0.316964	0.165118	-0.211635	0	0	-0.374998	0.0546309	-0.094271	0.189254	-0.434938	1.25344	0.597304	0.291963	0	0	-0.285669	-0.34167	0.0366036	0.892935	1.56835	0	0
1.24	-0.363531	1.34647	-1.21393	0.78572	0.476831	0.941001	-0.505056	0.127988	-0.186143	0.0861177	-0.181628	0	0	0.131678	-0.0572216	-0.325152	0.194347	-0.209187	0	0	-0.375601	0.0514757	-0.092019	0.188531	-0.433897	1.25507	0.595775	0.290361	0	0	-0.286866	-0.343543	0.03596	0.88977	1.57019	0	0
1.25	-0.360783	1.34555	-1.21835	0.785279	0.465922	0.940282	-0.508559	0.124213	-0.190635	0.106327	-0.179395	0	0	0.131568	-0.0575456	-0.331557	0.229101	-0.203602	0	0	-0.376447	0.0478915	-0.0898322	0.187006	-0.43345	1.25591	0.594886	0.288272	0	0	-0.288714	-0.34583	0.0357612	0.886471	1.5708	0	0
1.26	-0.35672	1.34467	-1.22404	0.784962	0.454667	0.9397	-0.511879	0.11978	-0.194664	0.127611	-0.178968	0	0	0.128877	-0.0573111	-0.335175	0.262065	-0.195916	0	0	-0.37692	0.044306	-0.0872723	0.184101	-0.433553	1.25527	0.594205	0.285259	0	0	-0.289965	-0.347125	0.0345657	0.883511	1.5708	0	0
1.27	-0.34271	1.34654	-1.23938	0.785124	0.443033	0.938875	-0.483272	0.103009	-0.251616	0.222956	-0.15021	0	0	0.125061	-0.0516958	-0.334503	0.285844	-0.186969	0	0	-0.374522	0.0384398	-0.0851747	0.179172	-0.436256	1.25306	0.596549	0.280141	0	0	-0.291626	-0.348424	0.0348519	0.880474	1.5708	0	0
1.28	-0.345278	1.34419	-1.23721	0.784685	0.431284	0.93892	-0.514276	0.108532	-0.206168	0.179014	-0.174252	0	0	0.115385	-0.0515108	-0.326624	0.295644	-0.188684	0	0	-0.375265	0.0365015	-0.0821211	0.174405	-0.434525	1.25194	0.592088	0.278246	0	0	-0.292142	-0.350647	0.0346548	0.876129	1.5708	0	0
1.29	-0.336897	1.34439	-1.24541	0.784707	0.419255	0.938829	-0.514831	0.102045	-0.209549	0.2046	-0.186127	0	0	0.106227	-0.0463747	-0.317982	0.294487	-0.201851	0	0	-0.373541	0.0320576	-0.0802559	0.168284	-0.434858	1.2502	0.590057	0.277313	0	0	-0.293072	-0.351528	0.0326684	0.871827	1.5708	0	0
1.3	-0.326635	1.34567	-1.25494	0.784867	0.407049	0.938914	-0.511051	0.0937262	-0.215803	0.237621	-0.196996	0	0	0.0971806	-0.0410155	-0.309583	0.287538	-0.229336	0	0	-0.370446	0.026968	-0.0788703	0.161366	-0.434297	1.24781	0.586213	0.276565	0	0	-0.294035	-0.353085	0.0318574	0.867115	1.5708	0	0
1.31	-0.316532	1.34794	-1.2634	0.785218	0.394669	0.939082	-0.504116	0.0845126	-0.222422	0.274787	-0.208164	0	0	0.0886403	-0.0364247	-0.302145	0.281	-0.258109	0	0	-0.365799	0.0220414	-0.0785233	0.153877	-0.433583	1.24524	0.581792	0.276235	0	0	-0.295504	-0.354524	0.0307468	0.862223	1.5708	0	0
1.32	-0.309075	1.35104	-1.26787	0.785819	0.382161	0.939245	-0.493295	0.0749324	-0.23003	0.317364	-0.221143	0	0	0.0821986	-0.0331766	-0.295809	0.280126	-0.279933	0	0	-0.359554	0.0182542	-0.0797172	0.146007	-0.43347	1.24264	0.577801	0.27633	0	0	-0.29732	-0.35522	0.0284407	0.857766	1.5708	0	0
1.33	-0.304233	1.35401	-1.26862	0.786656	0.369645	0.939442	-0.479123	0.0650466	-0.237481	0.365871	-0.237223	0	0	0.0778915	-0.0313455	-0.290441	0.286873	-0.2944	0	0	-0.352924	0.0158509	-0.0822396	0.138214	-0.434546	1.23996	0.575244	0.276425	0	0	-0.299363	-0.356238	0.0270453	0.853789	1.5708	0	0
1.34	-0.299357	1.3567	-1.269	0.787662	0.357199	0.939777	-0.461614	0.0539496	-0.243156	0.420491	-0.257537	0	0	0.0745781	-0.029984	-0.286051	0.299505	-0.301794	0	0	-0.346668	0.0141627	-0.0854847	0.130911	-0.436802	1.23758	0.574235	0.276999	0	0	-0.301048	-0.356686	0.0244224	0.850736	1.5708	0	0
1.35	-0.289195	1.35922	-1.27447	0.788775	0.344936	0.940313	-0.440912	0.0405036	-0.246512	0.480391	-0.282279	0	0	0.0707065	-0.0274266	-0.282963	0.314545	-0.298839	0	0	-0.341389	0.0119123	-0.0896073	0.12436	-0.439303	1.23501	0.57379	0.277416	0	0	-0.302408	-0.356471	0.0202391	0.848793	1.5708	0	0
1.36	-0.270459	1.36277	-1.28798	0.789944	0.332884	0.940978	-0.41586	0.0244	-0.248073	0.544486	-0.313768	0	0	0.0664767	-0.0222276	-0.280638	0.329076	-0.287537	0	0	-0.33596	0.00780341	-0.0949992	0.118484	-0.440516	1.23245	0.571758	0.277987	0	0	-0.302902	-0.356817	0.0171892	0.846997	1.5708	0	0
